<?xml version="1.0" encoding="UTF-8"?>
<svg height="55px" version="1.1" viewBox="0 0 55 55" width="55px" xmlns="http://www.w3.org/2000/svg"
     xmlns:xlink="http://www.w3.org/1999/xlink">
    <!-- Generator: Sketch 54.1 (76490) - https://sketchapp.com -->
    <title>icon</title>
    <desc>Created with Sketch.</desc>
    <g fill="none" fill-rule="evenodd" id="icon" stroke="none" stroke-width="1">
        <g fill="#FFFFFF" fill-rule="nonzero" transform="translate(2.000000, 7.000000)">
            <path
                d="M51,23.1667397 C51,17.4716694 46.6237684,12.8552606 41.2251377,12.8552606 C40.7853928,12.8552606 40.3559505,12.8961557 39.9324245,12.9562069 C39.5586771,5.73488919 33.8919764,0 26.9560237,0 C21.2925872,0 16.979905,4.3497298 15.1980763,9.67900437 C14.2471829,9.41695301 12.7476029,8.74734989 11.7190834,8.74734989 C5.24592879,8.74734989 0,14.2831446 0,21.1130534 C0,27.1274281 4.0691956,32.1322325 9.46068596,33.243933 L9.46068596,37.2681164 L7.3691692,37.2681164 C6.47264458,37.2681164 5.74391868,38.0341459 5.74391868,38.9807593 C5.74391868,40.4443727 6.74785489,42 8.60781961,42 L42.6650446,42 C44.5252133,42 45.5279255,40.4443727 45.5279255,38.9807593 C45.5279255,38.0341459 44.8018517,37.2681164 43.9052251,37.2681164 L41.8126883,37.2681164 L41.8126883,33.447117 C46.9378428,33.1255525 51,28.6534603 51,23.1667397 Z M11.0828763,18.8314308 C11.0828763,18.255994 11.5292515,17.7867767 12.0742659,17.7867767 L39.1982923,17.7867767 C39.7437147,17.7867767 40.1889678,18.255994 40.1889678,18.8314308 L40.1889678,33.4783264 L40.1889678,36.9945499 C40.1889678,37.1337008 40.1621404,37.2652107 40.114606,37.3863893 L11.1594823,37.3863893 C11.1107238,37.2652107 11.0828763,37.1337008 11.0828763,36.9945499 L11.0828763,33.4447494 L11.0828763,18.8314308 Z M43.9052251,38.9807593 C43.9052251,38.9807593 43.9052251,40.286819 42.6650446,40.286819 C41.4286383,40.286819 9.84647002,40.286819 8.60781961,40.286819 C7.3691692,40.286819 7.3691692,38.9807593 7.3691692,38.9807593 L11.1594823,38.9807593 L40.114504,38.9807593 L43.9052251,38.9807593 Z"
                id="Shape"></path>
            <polygon id="Path"
                     points="39 33.5304705 39 19 12 19 12 33.5304705 12 36 39 36"></polygon>
        </g>
    </g>
</svg>