<?xml version="1.0" encoding="UTF-8"?>
<svg height="108px" version="1.1" viewBox="0 0 108 108" width="108px"
     xmlns="http://www.w3.org/2000/svg" xmlns:xlink="http://www.w3.org/1999/xlink">
    <!-- Generator: Sketch 54.1 (76490) - https://sketchapp.com -->
    <title>launcher_foreground</title>
    <desc>Created with Sketch.</desc>
    <defs>
        <linearGradient id="linearGradient-1" x1="0%" x2="99.3159361%" y1="48.934636%"
                        y2="49.9927122%">
            <stop offset="0%" stop-color="#373737" stop-opacity="0.258085664"></stop>
            <stop offset="99.9472128%" stop-color="#000000" stop-opacity="0"></stop>
        </linearGradient>
    </defs>
    <g fill="none" fill-rule="evenodd" id="launcher_foreground" stroke="none" stroke-width="1">
        <g id="adaptive-icon" transform="translate(24.000000, 27.000000)">
            <g id="foreground">
                <g fill="url(#linearGradient-1)" fill-opacity="0.8" id="shadows"
                   transform="translate(0.239762, 0.726873)">
                    <polygon id="cloud"
                             points="14.1387534 25.9825124 28.098943 26.5418644 30.2478362 25.9038387 74.1483744 25.8652176 95.5873929 47.3042361 70.0073082 72.8843208 18.9139983 73.1588674 17.2254959 71.0453536 19.2162148 69.0546348 18.6164643 68.0171909 7.61945432 67.3263188 4.16629489 56.8332787"
                             transform="translate(49.876844, 49.512043) rotate(45.000000) translate(-49.876844, -49.512043) "></polygon>
                </g>
                <g fill="#FFFFFF" fill-rule="nonzero" id="icon"
                   transform="translate(5.000000, 4.000000)">
                    <path
                        d="M51,23.1667397 C51,17.4716694 46.6237684,12.8552606 41.2251377,12.8552606 C40.7853928,12.8552606 40.3559505,12.8961557 39.9324245,12.9562069 C39.5586771,5.73488919 33.8919764,0 26.9560237,0 C21.2925872,0 16.979905,4.3497298 15.1980763,9.67900437 C14.2471829,9.41695301 12.7476029,8.74734989 11.7190834,8.74734989 C5.24592879,8.74734989 0,14.2831446 0,21.1130534 C0,27.1274281 4.0691956,32.1322325 9.46068596,33.243933 L9.46068596,37.2681164 L7.3691692,37.2681164 C6.47264458,37.2681164 5.74391868,38.0341459 5.74391868,38.9807593 C5.74391868,40.4443727 6.74785489,42 8.60781961,42 L42.6650446,42 C44.5252133,42 45.5279255,40.4443727 45.5279255,38.9807593 C45.5279255,38.0341459 44.8018517,37.2681164 43.9052251,37.2681164 L41.8126883,37.2681164 L41.8126883,33.447117 C46.9378428,33.1255525 51,28.6534603 51,23.1667397 Z M11.0828763,18.8314308 C11.0828763,18.255994 11.5292515,17.7867767 12.0742659,17.7867767 L39.1982923,17.7867767 C39.7437147,17.7867767 40.1889678,18.255994 40.1889678,18.8314308 L40.1889678,33.4783264 L40.1889678,36.9945499 C40.1889678,37.1337008 40.1621404,37.2652107 40.114606,37.3863893 L11.1594823,37.3863893 C11.1107238,37.2652107 11.0828763,37.1337008 11.0828763,36.9945499 L11.0828763,33.4447494 L11.0828763,18.8314308 Z M43.9052251,38.9807593 C43.9052251,38.9807593 43.9052251,40.286819 42.6650446,40.286819 C41.4286383,40.286819 9.84647002,40.286819 8.60781961,40.286819 C7.3691692,40.286819 7.3691692,38.9807593 7.3691692,38.9807593 L11.1594823,38.9807593 L40.114504,38.9807593 L43.9052251,38.9807593 Z"
                        id="Shape"></path>
                    <polygon id="Path"
                             points="39 33.5304705 39 19 12 19 12 33.5304705 12 36 39 36"></polygon>
                </g>
            </g>
        </g>
    </g>
</svg>