<?xml version="1.0" encoding="UTF-8"?>
<svg width="358px" height="306px" viewBox="0 0 358 306" version="1.1" xmlns="http://www.w3.org/2000/svg" xmlns:xlink="http://www.w3.org/1999/xlink">
    <!-- Generator: Sketch 54.1 (76490) - https://sketchapp.com -->
    <title>icon</title>
    <desc>Created with Sketch.</desc>
    <g id="Page-1" stroke="none" stroke-width="1" fill="none" fill-rule="evenodd">
        <g id="splash_screen" transform="translate(-87.000000, -113.000000)" fill="#FFFFFF">
            <g id="icon" transform="translate(106.000000, 132.000000)">
                <g>
                    <path d="M300,136.242493 C300,102.750056 274.257461,75.6011756 242.50081,75.6011756 C239.914076,75.6011756 237.387944,75.8416776 234.896615,76.1948358 C232.6981,33.7266102 199.364567,0 158.564845,0 C125.250513,0 99.8817939,25.5805538 89.4004488,56.9217638 C83.806958,55.3806522 74.9858993,51.4427482 68.9357847,51.4427482 C30.8584046,51.4427482 0,83.9984933 0,124.164861 C0,159.535113 23.9364447,188.96813 55.6510939,195.505987 L55.6510939,219.172018 L43.3480541,219.172018 C38.0743799,219.172018 33.787757,223.677001 33.787757,229.243989 C33.787757,237.85143 39.693264,247 50.634233,247 L250.97085,247 C261.913019,247 267.811326,237.85143 267.811326,229.243989 C267.811326,223.677001 263.540304,219.172018 258.26603,219.172018 L245.95699,219.172018 L245.95699,196.700902 C276.104957,194.809797 300,168.509636 300,136.242493 Z M65.1933901,110.746748 C65.1933901,107.362631 67.8191266,104.603187 71.0250933,104.603187 L230.57819,104.603187 C233.786557,104.603187 236.405693,107.362631 236.405693,110.746748 L236.405693,196.884443 L236.405693,217.563186 C236.405693,218.381526 236.247885,219.15493 235.96827,219.867575 L65.6440135,219.867575 C65.3571986,219.15493 65.1933901,218.381526 65.1933901,217.563186 L65.1933901,196.686978 L65.1933901,110.746748 Z M258.26603,229.243989 C258.26603,229.243989 258.26603,236.924864 250.97085,236.924864 C243.697872,236.924864 57.9204119,236.924864 50.634233,236.924864 C43.3480541,236.924864 43.3480541,229.243989 43.3480541,229.243989 L65.6440135,229.243989 L235.96767,229.243989 L258.26603,229.243989 Z" id="Shape" fill-rule="nonzero"></path>
                    <polygon id="Path" fill-rule="nonzero" points="229.411765 197.1911 229.411765 111.738095 70.5882353 111.738095 70.5882353 197.1911 70.5882353 211.714286 229.411765 211.714286"></polygon>
                </g>
            </g>
        </g>
    </g>
</svg>